<svg xmlns="http://www.w3.org/2000/svg" viewBox="0 0 32 32" fill="none">
  <defs>
    <linearGradient id="lumora" x1="0%" y1="0%" x2="100%" y2="100%">
      <stop offset="0%" stop-color="#E91E7A"/>
      <stop offset="100%" stop-color="#8B5CF6"/>
    </linearGradient>
  </defs>
  <rect width="32" height="32" rx="8" fill="url(#lumora)"/>
  <path d="M16 8.25 8.25 14.75V23.5h4.75v-4.25a1.75 1.75 0 0 1 1.75-1.75h2.5a1.75 1.75 0 0 1 1.75 1.75V23.5h4.75V14.75L16 8.25Z" fill="#fff"/>
  <path d="M19.25 8.25h2.25v4.5h-2.25V8.25Z" fill="#fff"/>
  <path d="M20.35 4.15c-.55-.95-2-.95-2.55 0-.55-.95-2.35-.95-2.9 0-.45.85.35 1.95 2.725 3.45 2.375-1.5 3.175-2.6 2.725-3.45Z" fill="#FFD6EC"/>
</svg>
